<svg width="124" height="124" viewBox="0 0 124 124" fill="none" xmlns="http://www.w3.org/2000/svg">
<g clip-path="url(#clip0_1_13190)">
<rect width="124" height="124" rx="62" fill="#82868C"/>
<path d="M74.2559 76.9994C77.5065 73.7175 79.3327 69.2663 79.3327 64.625C79.3327 59.9837 77.5065 55.5325 74.2559 52.2506C71.0052 48.9687 66.5964 47.125 61.9993 47.125C57.4023 47.125 52.9935 48.9687 49.7428 52.2506C46.4922 55.5325 44.666 59.9837 44.666 64.625C44.666 69.2663 46.4922 73.7175 49.7428 76.9994C52.9935 80.2813 57.4023 82.125 61.9993 82.125C66.5964 82.125 71.0052 80.2813 74.2559 76.9994Z" stroke="white" stroke-width="2" stroke-linecap="round" stroke-linejoin="round"/>
<path d="M40.5504 104.22C46.239 98.4766 53.9545 95.25 61.9993 95.25C70.0443 95.25 77.7597 98.4766 83.4483 104.22C89.1369 109.963 92.3327 117.753 92.3327 125.875H31.666C31.666 117.753 34.8618 109.963 40.5504 104.22Z" stroke="white" stroke-width="2" stroke-linecap="round" stroke-linejoin="round"/>
</g>
<defs>
<clipPath id="clip0_1_13190">
<rect width="124" height="124" rx="62" fill="white"/>
</clipPath>
</defs>
</svg>
